# xmcd
#
# Track frame offsets: 
#        150
#        17905
#        38662
#        55067
#        72702
#        88610
#        99930
#        117115
#        128495
#        145395
#
# Disc length: 2247 seconds
#
# Revision: 7
# Processed by: cddbd v1.5.2PL0 Copyright (c) Steve Scherf et al.
# Submitted via: ExactAudioCopy v1.1
#
DISCID=8208c50a
DTITLE=Omar and The Howlers - Hard Times In The Land Of Plenty
DYEAR=1987
DGENRE=Rock
TTITLE0=Hard Times In The Land Of Plenty
TTITLE1=Dancing In The Canebrake
TTITLE2=Border Girl
TTITLE3=Mississippi Hoo Doo Man
TTITLE4=Don't Rock Me The Wrong Way
TTITLE5=Same Old Grind
TTITLE6=Don't You Know
TTITLE7=You Ain't Foolin' Nobody
TTITLE8=Shadow Man
TTITLE9=Lee Anne
EXTD=YEAR: 1987
EXTT0=
EXTT1=
EXTT2=
EXTT3=
EXTT4=
EXTT5=
EXTT6=
EXTT7=
EXTT8=
EXTT9=
PLAYORDER=
